<svg xmlns="http://www.w3.org/2000/svg" width="256" height="256" fill="none"><path fill="currentColor" fill-rule="evenodd" d="M128 256c70.692 0 128-57.308 128-128C256 57.308 198.692 0 128 0 57.308 0 0 57.308 0 128c0 70.692 57.308 128 128 128Zm.675-118.134a.775.775 0 0 0-1.35 0l-20.918 37.74a.775.775 0 0 1-1.35 0l-20.993-37.74a.775.775 0 0 0-1.35 0L63.67 172.08a.787.787 0 0 1-.674.375H32.78c-.6 0-.974-.6-.674-1.126l50.533-90.935a.775.775 0 0 1 1.35 0l20.993 37.74a.775.775 0 0 0 1.35 0l20.993-37.74a.775.775 0 0 1 1.35 0l35.014 62.949c.15.226.375.376.674.376h43.711c.3 0 .525.15.675.375l15.145 27.235c.3.526-.075 1.126-.674 1.126h-74.826c-.3 0-.525-.15-.675-.375l-19.044-34.214Z" clip-rule="evenodd"/></svg>